<svg width="88" height="79" viewBox="0 0 88 79" fill="none" xmlns="http://www.w3.org/2000/svg">
<path fill-rule="evenodd" clip-rule="evenodd" d="M15.1171 60.1441C15.4011 59.8331 15.747 59.5848 16.1328 59.4147C16.5183 59.2445 16.9358 59.1566 17.3575 59.1563L86.4831 59.2126C86.7777 59.2133 87.0654 59.299 87.3117 59.4594C87.5584 59.6197 87.7526 59.8481 87.871 60.1163C87.9898 60.3844 88.0276 60.6815 87.98 60.9707C87.9325 61.26 87.8016 61.5293 87.6032 61.746L72.8827 77.8872C72.5987 78.1982 72.2525 78.4468 71.8667 78.617C71.4805 78.7871 71.063 78.875 70.6405 78.875L1.51687 78.8187C1.22249 78.8179 0.93461 78.7323 0.688212 78.5719C0.441814 78.4115 0.247501 78.1832 0.128885 77.915C0.0102686 77.6468 -0.0275993 77.3497 0.0199604 77.0605C0.0674824 76.7713 0.198395 76.502 0.396705 76.2853L15.1171 60.1441ZM87.6032 46.7071C87.8016 46.9239 87.9325 47.1932 87.98 47.4824C88.0276 47.7716 87.9898 48.0687 87.871 48.3369C87.7526 48.605 87.5584 48.8334 87.3117 48.9938C87.0654 49.1541 86.7777 49.2398 86.4831 49.2405L17.3593 49.2969C16.9373 49.2969 16.5198 49.209 16.1336 49.0388C15.7474 48.8687 15.4011 48.6201 15.1171 48.3091L0.396705 32.1585C0.198395 31.9417 0.0674824 31.6724 0.0199604 31.3832C-0.0275993 31.094 0.0102686 30.7969 0.128885 30.5288C0.247501 30.2606 0.441814 30.0322 0.688212 29.8718C0.93461 29.7115 1.22249 29.6258 1.51687 29.6251L70.6424 29.5687C71.0645 29.5691 71.4816 29.657 71.8674 29.8271C72.2533 29.9973 72.5991 30.2456 72.8827 30.5565L87.6032 46.7071ZM15.1171 0.987814C15.4011 0.676934 15.747 0.428478 16.1328 0.258371C16.5183 0.0883012 16.9358 0.000262917 17.3575 0L86.4831 0.0563399C86.7777 0.0569408 87.0654 0.142651 87.3117 0.303068C87.5584 0.463485 87.7526 0.691696 87.871 0.959984C87.9898 1.22831 88.0276 1.52514 87.98 1.81443C87.9325 2.10371 87.8016 2.37301 87.6032 2.58973L72.8827 18.7309C72.5987 19.0419 72.2525 19.2906 71.8667 19.4607C71.4805 19.6309 71.063 19.7188 70.6405 19.7188L1.51687 19.6624C1.22249 19.6617 0.93461 19.576 0.688212 19.4156C0.441814 19.2553 0.247501 19.0269 0.128885 18.7587C0.0102686 18.4906 -0.0275993 18.1935 0.0199604 17.9043C0.0674824 17.615 0.198395 17.3457 0.396705 17.129L15.1171 0.987814Z" fill="url(#paint0_linear_101_2674)"/>
<defs>
<linearGradient id="paint0_linear_101_2674" x1="2.67097" y1="80.5952" x2="84.9856" y2="-2.06215" gradientUnits="userSpaceOnUse">
<stop stop-color="#9945FF"/>
<stop offset="0.2" stop-color="#7962E7"/>
<stop offset="1" stop-color="#00D18C"/>
</linearGradient>
</defs>
</svg>
