<svg width="253" height="32" viewBox="0 0 253 32" fill="none" xmlns="http://www.w3.org/2000/svg">
<rect width="253" height="32" fill="white"/>
<path d="M8.63 22.5C8.534 22.5 8.444 22.464 8.36 22.392C8.288 22.32 8.252 22.23 8.252 22.122L8.288 21.96L12.626 10.35C12.71 10.05 12.92 9.9 13.256 9.9H15.218C15.53 9.9 15.74 10.05 15.848 10.35L20.186 21.96C20.198 21.996 20.204 22.05 20.204 22.122C20.204 22.23 20.168 22.32 20.096 22.392C20.024 22.464 19.94 22.5 19.844 22.5H18.278C18.122 22.5 18.002 22.464 17.918 22.392C17.834 22.32 17.78 22.242 17.756 22.158L16.91 19.962H11.564L10.718 22.158C10.622 22.386 10.448 22.5 10.196 22.5H8.63ZM16.28 17.892L14.228 12.33L12.194 17.892H16.28ZM24.3447 22.5C24.1647 22.5 24.0207 22.452 23.9127 22.356C23.8047 22.26 23.7387 22.128 23.7147 21.96L21.5727 10.422L21.5547 10.278C21.5547 10.17 21.5907 10.08 21.6627 10.008C21.7467 9.936 21.8367 9.9 21.9327 9.9H23.5167C23.8167 9.9 23.9847 10.02 24.0207 10.26L25.5147 18.414L27.1347 13.14C27.2547 12.84 27.4527 12.69 27.7287 12.69H28.7007C29.0007 12.69 29.1927 12.84 29.2767 13.14L30.9147 18.396L32.4087 10.26C32.4327 10.128 32.4807 10.038 32.5527 9.99C32.6367 9.93 32.7567 9.9 32.9127 9.9H34.4967C34.5927 9.9 34.6767 9.936 34.7487 10.008C34.8207 10.08 34.8567 10.17 34.8567 10.278C34.8567 10.338 34.8507 10.386 34.8387 10.422L32.6967 21.96C32.6367 22.32 32.4267 22.5 32.0667 22.5H30.8607C30.6927 22.5 30.5547 22.458 30.4467 22.374C30.3387 22.29 30.2667 22.182 30.2307 22.05L28.2147 16.038L26.1987 22.05C26.0787 22.35 25.8627 22.5 25.5507 22.5H24.3447ZM38.302 22.5C38.182 22.5 38.08 22.458 37.996 22.374C37.912 22.29 37.87 22.188 37.87 22.068V10.35C37.87 10.218 37.906 10.11 37.978 10.026C38.062 9.942 38.17 9.9 38.302 9.9H46.222C46.354 9.9 46.462 9.942 46.546 10.026C46.63 10.11 46.672 10.218 46.672 10.35V11.538C46.672 11.67 46.63 11.778 46.546 11.862C46.462 11.934 46.354 11.97 46.222 11.97H40.3V15.156H45.826C45.958 15.156 46.066 15.198 46.15 15.282C46.234 15.354 46.276 15.456 46.276 15.588V16.704C46.276 16.836 46.234 16.944 46.15 17.028C46.066 17.1 45.958 17.136 45.826 17.136H40.3V20.43H46.366C46.498 20.43 46.606 20.472 46.69 20.556C46.774 20.64 46.816 20.748 46.816 20.88V22.068C46.816 22.2 46.774 22.308 46.69 22.392C46.606 22.464 46.498 22.5 46.366 22.5H38.302ZM54.3413 22.68C53.2733 22.68 52.3553 22.518 51.5873 22.194C50.8193 21.87 50.2373 21.444 49.8413 20.916C49.4453 20.388 49.2353 19.818 49.2113 19.206C49.2113 19.098 49.2473 19.008 49.3193 18.936C49.3913 18.864 49.4813 18.828 49.5893 18.828H51.1913C51.3353 18.828 51.4433 18.858 51.5153 18.918C51.5993 18.966 51.6773 19.05 51.7493 19.17C51.8693 19.578 52.1453 19.92 52.5773 20.196C53.0093 20.472 53.5973 20.61 54.3413 20.61C55.1933 20.61 55.8353 20.472 56.2673 20.196C56.6993 19.908 56.9153 19.512 56.9153 19.008C56.9153 18.672 56.8013 18.396 56.5733 18.18C56.3573 17.964 56.0273 17.778 55.5833 17.622C55.1513 17.466 54.5033 17.274 53.6393 17.046C52.2233 16.71 51.1853 16.266 50.5253 15.714C49.8773 15.15 49.5533 14.352 49.5533 13.32C49.5533 12.624 49.7393 12.006 50.1113 11.466C50.4953 10.926 51.0413 10.5 51.7493 10.188C52.4693 9.876 53.3033 9.72 54.2513 9.72C55.2353 9.72 56.0873 9.894 56.8073 10.242C57.5273 10.59 58.0733 11.028 58.4453 11.556C58.8293 12.072 59.0333 12.588 59.0573 13.104C59.0573 13.212 59.0213 13.302 58.9493 13.374C58.8773 13.446 58.7873 13.482 58.6793 13.482H57.0053C56.7533 13.482 56.5793 13.368 56.4833 13.14C56.4113 12.756 56.1713 12.438 55.7633 12.186C55.3553 11.922 54.8513 11.79 54.2513 11.79C53.5793 11.79 53.0513 11.916 52.6673 12.168C52.2833 12.42 52.0913 12.786 52.0913 13.266C52.0913 13.602 52.1873 13.878 52.3793 14.094C52.5713 14.31 52.8713 14.502 53.2793 14.67C53.6993 14.838 54.2993 15.024 55.0793 15.228C56.1353 15.468 56.9753 15.738 57.5993 16.038C58.2353 16.338 58.7033 16.716 59.0033 17.172C59.3033 17.628 59.4533 18.21 59.4533 18.918C59.4533 19.686 59.2373 20.358 58.8053 20.934C58.3853 21.498 57.7853 21.93 57.0053 22.23C56.2373 22.53 55.3493 22.68 54.3413 22.68ZM67.2581 22.68C65.6261 22.68 64.3541 22.266 63.4421 21.438C62.5301 20.61 62.0501 19.38 62.0021 17.748C61.9901 17.4 61.9841 16.89 61.9841 16.218C61.9841 15.534 61.9901 15.018 62.0021 14.67C62.0501 13.074 62.5421 11.85 63.4781 10.998C64.4141 10.146 65.6741 9.72 67.2581 9.72C68.8421 9.72 70.1021 10.146 71.0381 10.998C71.9861 11.85 72.4841 13.074 72.5321 14.67C72.5561 15.366 72.5681 15.882 72.5681 16.218C72.5681 16.542 72.5561 17.052 72.5321 17.748C72.4721 19.38 71.9861 20.61 71.0741 21.438C70.1621 22.266 68.8901 22.68 67.2581 22.68ZM67.2581 20.61C68.0621 20.61 68.7041 20.37 69.1841 19.89C69.6641 19.398 69.9221 18.654 69.9581 17.658C69.9821 16.938 69.9941 16.452 69.9941 16.2C69.9941 15.924 69.9821 15.438 69.9581 14.742C69.9221 13.746 69.6641 13.008 69.1841 12.528C68.7041 12.036 68.0621 11.79 67.2581 11.79C66.4661 11.79 65.8301 12.036 65.3501 12.528C64.8701 13.008 64.6121 13.746 64.5761 14.742C64.5641 15.09 64.5581 15.576 64.5581 16.2C64.5581 16.812 64.5641 17.298 64.5761 17.658C64.6121 18.654 64.8641 19.398 65.3321 19.89C65.8121 20.37 66.4541 20.61 67.2581 20.61ZM76.2817 22.5C76.1497 22.5 76.0417 22.464 75.9577 22.392C75.8737 22.308 75.8317 22.2 75.8317 22.068V10.35C75.8317 10.218 75.8737 10.11 75.9577 10.026C76.0417 9.942 76.1497 9.9 76.2817 9.9H77.7037C77.9557 9.9 78.1357 10.014 78.2437 10.242L81.7177 16.722L85.2277 10.242C85.3477 10.014 85.5277 9.9 85.7677 9.9H87.1717C87.3037 9.9 87.4117 9.942 87.4957 10.026C87.5797 10.11 87.6217 10.218 87.6217 10.35V22.068C87.6217 22.2 87.5797 22.308 87.4957 22.392C87.4117 22.464 87.3037 22.5 87.1717 22.5H85.6597C85.5397 22.5 85.4377 22.458 85.3537 22.374C85.2697 22.29 85.2277 22.188 85.2277 22.068V14.274L82.7077 19.08C82.5517 19.344 82.3477 19.476 82.0957 19.476H81.3577C81.1057 19.476 80.9017 19.344 80.7457 19.08L78.2257 14.274V22.068C78.2257 22.188 78.1837 22.29 78.0997 22.374C78.0277 22.458 77.9257 22.5 77.7937 22.5H76.2817ZM91.7536 22.5C91.6336 22.5 91.5316 22.458 91.4476 22.374C91.3636 22.29 91.3216 22.188 91.3216 22.068V10.35C91.3216 10.218 91.3576 10.11 91.4296 10.026C91.5136 9.942 91.6216 9.9 91.7536 9.9H99.6736C99.8056 9.9 99.9136 9.942 99.9976 10.026C100.082 10.11 100.124 10.218 100.124 10.35V11.538C100.124 11.67 100.082 11.778 99.9976 11.862C99.9136 11.934 99.8056 11.97 99.6736 11.97H93.7516V15.156H99.2776C99.4096 15.156 99.5176 15.198 99.6016 15.282C99.6856 15.354 99.7276 15.456 99.7276 15.588V16.704C99.7276 16.836 99.6856 16.944 99.6016 17.028C99.5176 17.1 99.4096 17.136 99.2776 17.136H93.7516V20.43H99.8176C99.9496 20.43 100.058 20.472 100.142 20.556C100.226 20.64 100.268 20.748 100.268 20.88V22.068C100.268 22.2 100.226 22.308 100.142 22.392C100.058 22.464 99.9496 22.5 99.8176 22.5H91.7536Z" fill="#232323"/>
<path d="M117.739 11.6944V8.82343H106.85C106.094 8.82343 105.369 9.1237 104.835 9.6582C104.3 10.1927 104 10.9176 104 11.6735V14.5864C104 15.3423 104.3 16.0672 104.835 16.6017C105.369 17.1362 106.094 17.4365 106.85 17.4365H115.482V20.3056H104.205V23.1766H115.503C116.259 23.1766 116.984 22.8763 117.518 22.3418C118.053 21.8073 118.353 21.0824 118.353 20.3265V17.4156C118.353 16.6597 118.053 15.9347 117.518 15.4002C116.984 14.8657 116.259 14.5655 115.503 14.5655H106.871V11.6944H117.739Z" fill="#9945FF"/>
<path d="M120.705 11.6735V20.3265C120.705 21.0824 121.006 21.8073 121.54 22.3418C122.075 22.8763 122.8 23.1766 123.556 23.1766H132.209C132.964 23.1766 133.689 22.8763 134.224 22.3418C134.758 21.8073 135.059 21.0824 135.059 20.3265V11.6735C135.059 10.9176 134.758 10.1927 134.224 9.6582C133.689 9.1237 132.964 8.82343 132.209 8.82343H123.556C122.8 8.82343 122.075 9.1237 121.54 9.6582C121.006 10.1927 120.705 10.9176 120.705 11.6735ZM132.188 20.3056H123.571V11.6944H132.182L132.188 20.3056Z" fill="#9945FF"/>
<path d="M151.24 11.6735V23.1766H154.111V18.4606H162.52V23.1766H165.39V11.6735C165.39 10.9176 165.089 10.1927 164.555 9.6582C164.02 9.1237 163.295 8.82343 162.539 8.82343H154.09C153.334 8.82343 152.609 9.1237 152.074 9.6582C151.54 10.1927 151.24 10.9176 151.24 11.6735ZM162.52 15.5896H154.113V11.6944H162.522L162.52 15.5896Z" fill="#9945FF"/>
<path d="M184.856 11.6735V23.1766H187.721V18.4606H196.129V23.1766H199V11.6735C199 10.9176 198.7 10.1927 198.165 9.6582C197.631 9.1237 196.906 8.82343 196.15 8.82343H187.706C186.95 8.82343 186.225 9.1237 185.691 9.6582C185.156 10.1927 184.856 10.9176 184.856 11.6735ZM196.133 15.5896H187.721V11.6944H196.129L196.133 15.5896Z" fill="#9945FF"/>
<path d="M179.433 8.82343V20.3056H178.293L174.166 10.0186C174.025 9.66599 173.782 9.3637 173.468 9.15067C173.153 8.93765 172.782 8.82367 172.403 8.82343H169.847C169.343 8.82343 168.86 9.02361 168.504 9.37994C168.147 9.73628 167.947 10.2196 167.947 10.7235V23.1766H170.81V11.6944H171.96L176.076 21.9834C176.217 22.3359 176.461 22.638 176.775 22.8507C177.09 23.0634 177.461 23.1769 177.841 23.1766H180.396C180.9 23.1766 181.384 22.9764 181.74 22.6201C182.096 22.2638 182.296 21.7804 182.296 21.2765V8.82343H179.433Z" fill="#9945FF"/>
<path d="M140.481 20.3056V8.82343H137.614V20.3265C137.614 21.0824 137.914 21.8073 138.449 22.3418C138.983 22.8763 139.709 23.1766 140.464 23.1766H149.096V20.3056H140.481Z" fill="#9945FF"/>
<path d="M202.512 22.5C202.392 22.5 202.29 22.458 202.206 22.374C202.122 22.29 202.08 22.188 202.08 22.068V20.286C202.08 20.166 202.122 20.064 202.206 19.98C202.29 19.884 202.392 19.836 202.512 19.836H204.312C204.432 19.836 204.534 19.884 204.618 19.98C204.702 20.064 204.744 20.166 204.744 20.286V22.068C204.744 22.188 204.702 22.29 204.618 22.374C204.534 22.458 204.432 22.5 204.312 22.5H202.512ZM208.465 22.5C208.345 22.5 208.243 22.458 208.159 22.374C208.075 22.29 208.033 22.188 208.033 22.068V10.35C208.033 10.218 208.069 10.11 208.141 10.026C208.225 9.942 208.333 9.9 208.465 9.9H212.857C216.385 9.9 218.185 11.532 218.257 14.796C218.281 15.492 218.293 15.96 218.293 16.2C218.293 16.428 218.281 16.89 218.257 17.586C218.209 19.266 217.759 20.508 216.907 21.312C216.055 22.104 214.735 22.5 212.947 22.5H208.465ZM212.857 20.43C213.865 20.43 214.591 20.208 215.035 19.764C215.479 19.308 215.713 18.564 215.737 17.532C215.761 16.812 215.773 16.362 215.773 16.182C215.773 15.99 215.761 15.546 215.737 14.85C215.713 13.866 215.461 13.14 214.981 12.672C214.513 12.204 213.775 11.97 212.767 11.97H210.535V20.43H212.857ZM222.021 22.5C221.901 22.5 221.799 22.458 221.715 22.374C221.631 22.29 221.589 22.188 221.589 22.068V10.35C221.589 10.218 221.625 10.11 221.697 10.026C221.781 9.942 221.889 9.9 222.021 9.9H229.941C230.073 9.9 230.181 9.942 230.265 10.026C230.349 10.11 230.391 10.218 230.391 10.35V11.538C230.391 11.67 230.349 11.778 230.265 11.862C230.181 11.934 230.073 11.97 229.941 11.97H224.019V15.156H229.545C229.677 15.156 229.785 15.198 229.869 15.282C229.953 15.354 229.995 15.456 229.995 15.588V16.704C229.995 16.836 229.953 16.944 229.869 17.028C229.785 17.1 229.677 17.136 229.545 17.136H224.019V20.43H230.085C230.217 20.43 230.325 20.472 230.409 20.556C230.493 20.64 230.535 20.748 230.535 20.88V22.068C230.535 22.2 230.493 22.308 230.409 22.392C230.325 22.464 230.217 22.5 230.085 22.5H222.021ZM237.253 22.5C236.905 22.5 236.677 22.332 236.569 21.996L232.717 10.44L232.681 10.278C232.681 10.17 232.717 10.08 232.789 10.008C232.861 9.936 232.951 9.9 233.059 9.9H234.643C234.799 9.9 234.919 9.942 235.003 10.026C235.099 10.098 235.165 10.188 235.201 10.296L238.243 19.566L241.285 10.296C241.309 10.2 241.369 10.11 241.465 10.026C241.561 9.942 241.687 9.9 241.843 9.9H243.427C243.523 9.9 243.607 9.936 243.679 10.008C243.763 10.08 243.805 10.17 243.805 10.278L243.769 10.44L239.917 21.996C239.809 22.332 239.581 22.5 239.233 22.5H237.253Z" fill="#232323"/>
</svg>
