<svg width="162" height="28" viewBox="0 0 162 28" fill="none" xmlns="http://www.w3.org/2000/svg">
<path d="M6.42 18.5C6.34533 18.5 6.27533 18.472 6.21 18.416C6.154 18.3507 6.126 18.2807 6.126 18.206C6.126 18.15 6.13067 18.108 6.14 18.08L9.43 9.092C9.458 8.98 9.51867 8.88667 9.612 8.812C9.70533 8.73733 9.82667 8.7 9.976 8.7H12.048C12.1973 8.7 12.3187 8.73733 12.412 8.812C12.5053 8.88667 12.566 8.98 12.594 9.092L15.87 18.08L15.898 18.206C15.898 18.2807 15.8653 18.3507 15.8 18.416C15.744 18.472 15.674 18.5 15.59 18.5H13.868C13.644 18.5 13.4947 18.402 13.42 18.206L12.874 16.778H9.136L8.604 18.206C8.52933 18.402 8.37533 18.5 8.142 18.5H6.42ZM12.314 14.762L11.012 11.066L9.71 14.762H12.314ZM19.5593 18.5C19.4007 18.5 19.2747 18.458 19.1813 18.374C19.088 18.2807 19.032 18.1687 19.0133 18.038L17.4873 9.092C17.478 9.064 17.4733 9.03133 17.4733 8.994C17.4733 8.91933 17.5013 8.854 17.5573 8.798C17.6227 8.73267 17.6927 8.7 17.7673 8.7H19.5033C19.7647 8.7 19.9093 8.80267 19.9373 9.008L20.8473 14.468L21.8553 11.248C21.958 10.996 22.112 10.87 22.3173 10.87H23.3253C23.5587 10.87 23.7127 10.996 23.7873 11.248L24.7953 14.468L25.7053 9.008C25.7333 8.80267 25.878 8.7 26.1393 8.7H27.8753C27.9593 8.7 28.0293 8.73267 28.0853 8.798C28.1507 8.854 28.1833 8.91933 28.1833 8.994L28.1693 9.092L26.6433 18.038C26.6247 18.1687 26.564 18.2807 26.4613 18.374C26.368 18.458 26.2467 18.5 26.0973 18.5H24.7673C24.618 18.5 24.5013 18.4627 24.4173 18.388C24.3333 18.3133 24.2727 18.2293 24.2353 18.136L22.8213 14.132L21.4073 18.136C21.3233 18.3787 21.1507 18.5 20.8893 18.5H19.5593ZM31.3761 18.5C31.2828 18.5 31.1988 18.4673 31.1241 18.402C31.0588 18.3273 31.0261 18.2433 31.0261 18.15V9.05C31.0261 8.94733 31.0588 8.86333 31.1241 8.798C31.1988 8.73267 31.2828 8.7 31.3761 8.7H37.9141C38.0168 8.7 38.1008 8.73267 38.1661 8.798C38.2314 8.86333 38.2641 8.94733 38.2641 9.05V10.366C38.2641 10.4593 38.2314 10.5433 38.1661 10.618C38.1008 10.6833 38.0168 10.716 37.9141 10.716H33.4481V12.606H37.6061C37.7088 12.606 37.7928 12.6433 37.8581 12.718C37.9234 12.7833 37.9561 12.8673 37.9561 12.97V14.188C37.9561 14.2813 37.9234 14.3653 37.8581 14.44C37.7928 14.5053 37.7088 14.538 37.6061 14.538H33.4481V16.484H38.0261C38.1288 16.484 38.2128 16.5167 38.2781 16.582C38.3434 16.6473 38.3761 16.7313 38.3761 16.834V18.15C38.3761 18.2433 38.3434 18.3273 38.2781 18.402C38.2128 18.4673 38.1288 18.5 38.0261 18.5H31.3761ZM45.0215 18.64C44.1348 18.64 43.3742 18.5093 42.7395 18.248C42.1048 17.9867 41.6242 17.646 41.2975 17.226C40.9802 16.7967 40.8122 16.33 40.7935 15.826C40.7935 15.7513 40.8215 15.686 40.8775 15.63C40.9428 15.5647 41.0175 15.532 41.1015 15.532H42.8655C42.9775 15.532 43.0662 15.5553 43.1315 15.602C43.2062 15.6393 43.2808 15.7 43.3555 15.784C43.4768 16.0267 43.6728 16.2273 43.9435 16.386C44.2142 16.5447 44.5735 16.624 45.0215 16.624C45.5535 16.624 45.9595 16.54 46.2395 16.372C46.5195 16.204 46.6595 15.9753 46.6595 15.686C46.6595 15.4807 46.5848 15.3127 46.4355 15.182C46.2955 15.0513 46.0715 14.9347 45.7635 14.832C45.4555 14.7293 44.9982 14.6127 44.3915 14.482C43.2715 14.2487 42.4315 13.908 41.8715 13.46C41.3208 13.0027 41.0455 12.354 41.0455 11.514C41.0455 10.9447 41.2042 10.436 41.5215 9.988C41.8388 9.54 42.2915 9.19 42.8795 8.938C43.4675 8.686 44.1535 8.56 44.9375 8.56C45.7495 8.56 46.4542 8.7 47.0515 8.98C47.6488 9.26 48.1015 9.61467 48.4095 10.044C48.7268 10.464 48.8948 10.8793 48.9135 11.29C48.9135 11.374 48.8855 11.444 48.8295 11.5C48.7735 11.556 48.7035 11.584 48.6195 11.584H46.7715C46.6595 11.584 46.5662 11.5653 46.4915 11.528C46.4262 11.4907 46.3655 11.43 46.3095 11.346C46.2535 11.1313 46.0995 10.9493 45.8475 10.8C45.6048 10.6507 45.3015 10.576 44.9375 10.576C44.5175 10.576 44.1955 10.6507 43.9715 10.8C43.7475 10.9493 43.6355 11.1687 43.6355 11.458C43.6355 11.654 43.6962 11.8173 43.8175 11.948C43.9482 12.0787 44.1535 12.2 44.4335 12.312C44.7228 12.4147 45.1335 12.522 45.6655 12.634C46.5335 12.7927 47.2242 12.9933 47.7375 13.236C48.2602 13.4693 48.6428 13.7773 48.8855 14.16C49.1282 14.5333 49.2495 15.0047 49.2495 15.574C49.2495 16.1993 49.0675 16.7453 48.7035 17.212C48.3488 17.6693 47.8495 18.024 47.2055 18.276C46.5708 18.5187 45.8428 18.64 45.0215 18.64ZM56.0547 18.64C54.7387 18.64 53.7027 18.318 52.9467 17.674C52.1907 17.03 51.7894 16.0827 51.7427 14.832C51.7334 14.5613 51.7287 14.16 51.7287 13.628C51.7287 13.0867 51.7334 12.6807 51.7427 12.41C51.7894 11.178 52.1954 10.2307 52.9607 9.568C53.7354 8.896 54.7667 8.56 56.0547 8.56C57.3427 8.56 58.374 8.896 59.1487 9.568C59.9234 10.2307 60.3294 11.178 60.3667 12.41C60.3854 12.9513 60.3947 13.3573 60.3947 13.628C60.3947 13.8893 60.3854 14.2907 60.3667 14.832C60.32 16.0827 59.9187 17.03 59.1627 17.674C58.4067 18.318 57.3707 18.64 56.0547 18.64ZM56.0547 16.624C56.568 16.624 56.974 16.47 57.2727 16.162C57.5807 15.854 57.744 15.3827 57.7627 14.748C57.7814 14.2067 57.7907 13.824 57.7907 13.6C57.7907 13.3573 57.7814 12.9747 57.7627 12.452C57.744 11.8173 57.5807 11.346 57.2727 11.038C56.9647 10.73 56.5587 10.576 56.0547 10.576C55.5507 10.576 55.1447 10.73 54.8367 11.038C54.538 11.346 54.3747 11.8173 54.3467 12.452C54.3374 12.7133 54.3327 13.096 54.3327 13.6C54.3327 14.0947 54.3374 14.4773 54.3467 14.748C54.3747 15.3827 54.538 15.854 54.8367 16.162C55.1354 16.47 55.5414 16.624 56.0547 16.624ZM63.7675 18.5C63.6742 18.5 63.5902 18.4673 63.5155 18.402C63.4502 18.3273 63.4175 18.2433 63.4175 18.15V9.05C63.4175 8.94733 63.4502 8.86333 63.5155 8.798C63.5902 8.73267 63.6742 8.7 63.7675 8.7H65.2795C65.5035 8.7 65.6668 8.80267 65.7695 9.008L68.2335 13.418L70.6975 9.008C70.8002 8.80267 70.9635 8.7 71.1875 8.7H72.6855C72.7882 8.7 72.8722 8.73267 72.9375 8.798C73.0122 8.86333 73.0495 8.94733 73.0495 9.05V18.15C73.0495 18.2527 73.0122 18.3367 72.9375 18.402C72.8722 18.4673 72.7882 18.5 72.6855 18.5H71.0195C70.9168 18.5 70.8282 18.4673 70.7535 18.402C70.6882 18.3367 70.6555 18.2527 70.6555 18.15V12.9L69.0875 15.826C68.9662 16.0407 68.8028 16.148 68.5975 16.148H67.8695C67.7482 16.148 67.6502 16.12 67.5755 16.064C67.5008 16.008 67.4355 15.9287 67.3795 15.826L65.7975 12.9V18.15C65.7975 18.2433 65.7648 18.3273 65.6995 18.402C65.6342 18.4673 65.5502 18.5 65.4475 18.5H63.7675ZM76.7613 18.5C76.6679 18.5 76.5839 18.4673 76.5093 18.402C76.4439 18.3273 76.4113 18.2433 76.4113 18.15V9.05C76.4113 8.94733 76.4439 8.86333 76.5093 8.798C76.5839 8.73267 76.6679 8.7 76.7613 8.7H83.2993C83.4019 8.7 83.4859 8.73267 83.5513 8.798C83.6166 8.86333 83.6493 8.94733 83.6493 9.05V10.366C83.6493 10.4593 83.6166 10.5433 83.5513 10.618C83.4859 10.6833 83.4019 10.716 83.2993 10.716H78.8333V12.606H82.9913C83.0939 12.606 83.1779 12.6433 83.2433 12.718C83.3086 12.7833 83.3413 12.8673 83.3413 12.97V14.188C83.3413 14.2813 83.3086 14.3653 83.2433 14.44C83.1779 14.5053 83.0939 14.538 82.9913 14.538H78.8333V16.484H83.4113C83.5139 16.484 83.5979 16.5167 83.6633 16.582C83.7286 16.6473 83.7613 16.7313 83.7613 16.834V18.15C83.7613 18.2433 83.7286 18.3273 83.6633 18.402C83.5979 18.4673 83.5139 18.5 83.4113 18.5H76.7613Z" fill="#3366FF"/>
<path d="M95.634 18.64C94.7473 18.64 93.9867 18.5093 93.352 18.248C92.7173 17.9867 92.2367 17.646 91.91 17.226C91.5927 16.7967 91.4247 16.33 91.406 15.826C91.406 15.7513 91.434 15.686 91.49 15.63C91.5553 15.5647 91.63 15.532 91.714 15.532H93.478C93.59 15.532 93.6787 15.5553 93.744 15.602C93.8187 15.6393 93.8933 15.7 93.968 15.784C94.0893 16.0267 94.2853 16.2273 94.556 16.386C94.8267 16.5447 95.186 16.624 95.634 16.624C96.166 16.624 96.572 16.54 96.852 16.372C97.132 16.204 97.272 15.9753 97.272 15.686C97.272 15.4807 97.1973 15.3127 97.048 15.182C96.908 15.0513 96.684 14.9347 96.376 14.832C96.068 14.7293 95.6107 14.6127 95.004 14.482C93.884 14.2487 93.044 13.908 92.484 13.46C91.9333 13.0027 91.658 12.354 91.658 11.514C91.658 10.9447 91.8167 10.436 92.134 9.988C92.4513 9.54 92.904 9.19 93.492 8.938C94.08 8.686 94.766 8.56 95.55 8.56C96.362 8.56 97.0667 8.7 97.664 8.98C98.2613 9.26 98.714 9.61467 99.022 10.044C99.3393 10.464 99.5073 10.8793 99.526 11.29C99.526 11.374 99.498 11.444 99.442 11.5C99.386 11.556 99.316 11.584 99.232 11.584H97.384C97.272 11.584 97.1787 11.5653 97.104 11.528C97.0387 11.4907 96.978 11.43 96.922 11.346C96.866 11.1313 96.712 10.9493 96.46 10.8C96.2173 10.6507 95.914 10.576 95.55 10.576C95.13 10.576 94.808 10.6507 94.584 10.8C94.36 10.9493 94.248 11.1687 94.248 11.458C94.248 11.654 94.3087 11.8173 94.43 11.948C94.5607 12.0787 94.766 12.2 95.046 12.312C95.3353 12.4147 95.746 12.522 96.278 12.634C97.146 12.7927 97.8367 12.9933 98.35 13.236C98.8727 13.4693 99.2553 13.7773 99.498 14.16C99.7407 14.5333 99.862 15.0047 99.862 15.574C99.862 16.1993 99.68 16.7453 99.316 17.212C98.9613 17.6693 98.462 18.024 97.818 18.276C97.1833 18.5187 96.4553 18.64 95.634 18.64ZM106.667 18.64C105.351 18.64 104.315 18.318 103.559 17.674C102.803 17.03 102.402 16.0827 102.355 14.832C102.346 14.5613 102.341 14.16 102.341 13.628C102.341 13.0867 102.346 12.6807 102.355 12.41C102.402 11.178 102.808 10.2307 103.573 9.568C104.348 8.896 105.379 8.56 106.667 8.56C107.955 8.56 108.987 8.896 109.761 9.568C110.536 10.2307 110.942 11.178 110.979 12.41C110.998 12.9513 111.007 13.3573 111.007 13.628C111.007 13.8893 110.998 14.2907 110.979 14.832C110.933 16.0827 110.531 17.03 109.775 17.674C109.019 18.318 107.983 18.64 106.667 18.64ZM106.667 16.624C107.181 16.624 107.587 16.47 107.885 16.162C108.193 15.854 108.357 15.3827 108.375 14.748C108.394 14.2067 108.403 13.824 108.403 13.6C108.403 13.3573 108.394 12.9747 108.375 12.452C108.357 11.8173 108.193 11.346 107.885 11.038C107.577 10.73 107.171 10.576 106.667 10.576C106.163 10.576 105.757 10.73 105.449 11.038C105.151 11.346 104.987 11.8173 104.959 12.452C104.95 12.7133 104.945 13.096 104.945 13.6C104.945 14.0947 104.95 14.4773 104.959 14.748C104.987 15.3827 105.151 15.854 105.449 16.162C105.748 16.47 106.154 16.624 106.667 16.624ZM114.38 18.5C114.287 18.5 114.203 18.4673 114.128 18.402C114.063 18.3273 114.03 18.2433 114.03 18.15V9.05C114.03 8.94733 114.063 8.86333 114.128 8.798C114.203 8.73267 114.287 8.7 114.38 8.7H116.228C116.331 8.7 116.415 8.73267 116.48 8.798C116.545 8.86333 116.578 8.94733 116.578 9.05V16.386H120.82C120.923 16.386 121.007 16.4233 121.072 16.498C121.137 16.5633 121.17 16.6473 121.17 16.75V18.15C121.17 18.2433 121.137 18.3273 121.072 18.402C121.007 18.4673 120.923 18.5 120.82 18.5H114.38ZM123.224 18.5C123.149 18.5 123.079 18.472 123.014 18.416C122.958 18.3507 122.93 18.2807 122.93 18.206C122.93 18.15 122.934 18.108 122.944 18.08L126.234 9.092C126.262 8.98 126.322 8.88667 126.416 8.812C126.509 8.73733 126.63 8.7 126.78 8.7H128.852C129.001 8.7 129.122 8.73733 129.216 8.812C129.309 8.88667 129.37 8.98 129.398 9.092L132.674 18.08L132.702 18.206C132.702 18.2807 132.669 18.3507 132.604 18.416C132.548 18.472 132.478 18.5 132.394 18.5H130.672C130.448 18.5 130.298 18.402 130.224 18.206L129.678 16.778H125.94L125.408 18.206C125.333 18.402 125.179 18.5 124.946 18.5H123.224ZM129.118 14.762L127.816 11.066L126.514 14.762H129.118ZM135.555 18.5C135.462 18.5 135.378 18.4673 135.303 18.402C135.238 18.3273 135.205 18.2433 135.205 18.15V9.05C135.205 8.94733 135.238 8.86333 135.303 8.798C135.378 8.73267 135.462 8.7 135.555 8.7H137.039C137.272 8.7 137.431 8.78867 137.515 8.966L140.931 14.342V9.05C140.931 8.94733 140.964 8.86333 141.029 8.798C141.104 8.73267 141.188 8.7 141.281 8.7H142.961C143.064 8.7 143.148 8.73267 143.213 8.798C143.278 8.86333 143.311 8.94733 143.311 9.05V18.136C143.311 18.2387 143.278 18.3273 143.213 18.402C143.148 18.4673 143.064 18.5 142.961 18.5H141.463C141.258 18.5 141.104 18.4113 141.001 18.234L137.585 13.054V18.15C137.585 18.2433 137.552 18.3273 137.487 18.402C137.422 18.4673 137.338 18.5 137.235 18.5H135.555ZM146.108 18.5C146.033 18.5 145.963 18.472 145.898 18.416C145.842 18.3507 145.814 18.2807 145.814 18.206C145.814 18.15 145.818 18.108 145.828 18.08L149.118 9.092C149.146 8.98 149.206 8.88667 149.3 8.812C149.393 8.73733 149.514 8.7 149.664 8.7H151.736C151.885 8.7 152.006 8.73733 152.1 8.812C152.193 8.88667 152.254 8.98 152.282 9.092L155.558 18.08L155.586 18.206C155.586 18.2807 155.553 18.3507 155.488 18.416C155.432 18.472 155.362 18.5 155.278 18.5H153.556C153.332 18.5 153.182 18.402 153.108 18.206L152.562 16.778H148.824L148.292 18.206C148.217 18.402 148.063 18.5 147.83 18.5H146.108ZM152.002 14.762L150.7 11.066L149.398 14.762H152.002Z" fill="#3366FF"/>
<rect x="0.75" y="0.75" width="160.5" height="26.5" rx="3.25" stroke="#3366FF" stroke-width="1.5"/>
</svg>
