<svg width="68" height="34" viewBox="0 0 68 34" fill="none" xmlns="http://www.w3.org/2000/svg">
<path d="M6.3 13C6.24667 13 6.19667 12.98 6.15 12.94C6.11 12.8933 6.09 12.8433 6.09 12.79C6.09 12.75 6.09333 12.72 6.1 12.7L8.45 6.28C8.47 6.2 8.51333 6.13333 8.58 6.08C8.64667 6.02667 8.73333 6 8.84 6H10.32C10.4267 6 10.5133 6.02667 10.58 6.08C10.6467 6.13333 10.69 6.2 10.71 6.28L13.05 12.7L13.07 12.79C13.07 12.8433 13.0467 12.8933 13 12.94C12.96 12.98 12.91 13 12.85 13H11.62C11.46 13 11.3533 12.93 11.3 12.79L10.91 11.77H8.24L7.86 12.79C7.80667 12.93 7.69667 13 7.53 13H6.3ZM10.51 10.33L9.58 7.69L8.65 10.33H10.51ZM15.6852 13C15.5719 13 15.4819 12.97 15.4152 12.91C15.3486 12.8433 15.3086 12.7633 15.2952 12.67L14.2052 6.28C14.1986 6.26 14.1952 6.23667 14.1952 6.21C14.1952 6.15667 14.2152 6.11 14.2552 6.07C14.3019 6.02333 14.3519 6 14.4052 6H15.6452C15.8319 6 15.9352 6.07333 15.9552 6.22L16.6052 10.12L17.3252 7.82C17.3986 7.64 17.5086 7.55 17.6552 7.55H18.3752C18.5419 7.55 18.6519 7.64 18.7052 7.82L19.4252 10.12L20.0752 6.22C20.0952 6.07333 20.1986 6 20.3852 6H21.6252C21.6852 6 21.7352 6.02333 21.7752 6.07C21.8219 6.11 21.8452 6.15667 21.8452 6.21L21.8352 6.28L20.7452 12.67C20.7319 12.7633 20.6886 12.8433 20.6152 12.91C20.5486 12.97 20.4619 13 20.3552 13H19.4052C19.2986 13 19.2152 12.9733 19.1552 12.92C19.0952 12.8667 19.0519 12.8067 19.0252 12.74L18.0152 9.88L17.0052 12.74C16.9452 12.9133 16.8219 13 16.6352 13H15.6852ZM24.1258 13C24.0591 13 23.9991 12.9767 23.9458 12.93C23.8991 12.8767 23.8758 12.8167 23.8758 12.75V6.25C23.8758 6.17667 23.8991 6.11667 23.9458 6.07C23.9991 6.02333 24.0591 6 24.1258 6H28.7958C28.8691 6 28.9291 6.02333 28.9758 6.07C29.0224 6.11667 29.0458 6.17667 29.0458 6.25V7.19C29.0458 7.25667 29.0224 7.31667 28.9758 7.37C28.9291 7.41667 28.8691 7.44 28.7958 7.44H25.6058V8.79H28.5758C28.6491 8.79 28.7091 8.81667 28.7558 8.87C28.8024 8.91667 28.8258 8.97667 28.8258 9.05V9.92C28.8258 9.98667 28.8024 10.0467 28.7558 10.1C28.7091 10.1467 28.6491 10.17 28.5758 10.17H25.6058V11.56H28.8758C28.9491 11.56 29.0091 11.5833 29.0558 11.63C29.1024 11.6767 29.1258 11.7367 29.1258 11.81V12.75C29.1258 12.8167 29.1024 12.8767 29.0558 12.93C29.0091 12.9767 28.9491 13 28.8758 13H24.1258ZM33.8725 13.1C33.2392 13.1 32.6958 13.0067 32.2425 12.82C31.7892 12.6333 31.4458 12.39 31.2125 12.09C30.9858 11.7833 30.8658 11.45 30.8525 11.09C30.8525 11.0367 30.8725 10.99 30.9125 10.95C30.9592 10.9033 31.0125 10.88 31.0725 10.88H32.3325C32.4125 10.88 32.4758 10.8967 32.5225 10.93C32.5758 10.9567 32.6292 11 32.6825 11.06C32.7692 11.2333 32.9092 11.3767 33.1025 11.49C33.2958 11.6033 33.5525 11.66 33.8725 11.66C34.2525 11.66 34.5425 11.6 34.7425 11.48C34.9425 11.36 35.0425 11.1967 35.0425 10.99C35.0425 10.8433 34.9892 10.7233 34.8825 10.63C34.7825 10.5367 34.6225 10.4533 34.4025 10.38C34.1825 10.3067 33.8558 10.2233 33.4225 10.13C32.6225 9.96333 32.0225 9.72 31.6225 9.4C31.2292 9.07333 31.0325 8.61 31.0325 8.01C31.0325 7.60333 31.1458 7.24 31.3725 6.92C31.5992 6.6 31.9225 6.35 32.3425 6.17C32.7625 5.99 33.2525 5.9 33.8125 5.9C34.3925 5.9 34.8958 6 35.3225 6.2C35.7492 6.4 36.0725 6.65333 36.2925 6.96C36.5192 7.26 36.6392 7.55667 36.6525 7.85C36.6525 7.91 36.6325 7.96 36.5925 8C36.5525 8.04 36.5025 8.06 36.4425 8.06H35.1225C35.0425 8.06 34.9758 8.04667 34.9225 8.02C34.8758 7.99333 34.8325 7.95 34.7925 7.89C34.7525 7.73667 34.6425 7.60667 34.4625 7.5C34.2892 7.39333 34.0725 7.34 33.8125 7.34C33.5125 7.34 33.2825 7.39333 33.1225 7.5C32.9625 7.60667 32.8825 7.76333 32.8825 7.97C32.8825 8.11 32.9258 8.22667 33.0125 8.32C33.1058 8.41333 33.2525 8.5 33.4525 8.58C33.6592 8.65333 33.9525 8.73 34.3325 8.81C34.9525 8.92333 35.4458 9.06667 35.8125 9.24C36.1858 9.40667 36.4592 9.62667 36.6325 9.9C36.8058 10.1667 36.8925 10.5033 36.8925 10.91C36.8925 11.3567 36.7625 11.7467 36.5025 12.08C36.2492 12.4067 35.8925 12.66 35.4325 12.84C34.9792 13.0133 34.4592 13.1 33.8725 13.1ZM41.7534 13.1C40.8134 13.1 40.0734 12.87 39.5334 12.41C38.9934 11.95 38.7067 11.2733 38.6734 10.38C38.6667 10.1867 38.6634 9.9 38.6634 9.52C38.6634 9.13333 38.6667 8.84333 38.6734 8.65C38.7067 7.77 38.9967 7.09333 39.5434 6.62C40.0967 6.14 40.8334 5.9 41.7534 5.9C42.6734 5.9 43.41 6.14 43.9634 6.62C44.5167 7.09333 44.8067 7.77 44.8334 8.65C44.8467 9.03667 44.8534 9.32667 44.8534 9.52C44.8534 9.70667 44.8467 9.99333 44.8334 10.38C44.8 11.2733 44.5134 11.95 43.9734 12.41C43.4334 12.87 42.6934 13.1 41.7534 13.1ZM41.7534 11.66C42.12 11.66 42.41 11.55 42.6234 11.33C42.8434 11.11 42.96 10.7733 42.9734 10.32C42.9867 9.93333 42.9934 9.66 42.9934 9.5C42.9934 9.32667 42.9867 9.05333 42.9734 8.68C42.96 8.22667 42.8434 7.89 42.6234 7.67C42.4034 7.45 42.1134 7.34 41.7534 7.34C41.3934 7.34 41.1034 7.45 40.8834 7.67C40.67 7.89 40.5534 8.22667 40.5334 8.68C40.5267 8.86667 40.5234 9.14 40.5234 9.5C40.5234 9.85333 40.5267 10.1267 40.5334 10.32C40.5534 10.7733 40.67 11.11 40.8834 11.33C41.0967 11.55 41.3867 11.66 41.7534 11.66ZM47.2625 13C47.1958 13 47.1358 12.9767 47.0825 12.93C47.0358 12.8767 47.0125 12.8167 47.0125 12.75V6.25C47.0125 6.17667 47.0358 6.11667 47.0825 6.07C47.1358 6.02333 47.1958 6 47.2625 6H48.3425C48.5025 6 48.6192 6.07333 48.6925 6.22L50.4525 9.37L52.2125 6.22C52.2858 6.07333 52.4025 6 52.5625 6H53.6325C53.7058 6 53.7658 6.02333 53.8125 6.07C53.8658 6.11667 53.8925 6.17667 53.8925 6.25V12.75C53.8925 12.8233 53.8658 12.8833 53.8125 12.93C53.7658 12.9767 53.7058 13 53.6325 13H52.4425C52.3692 13 52.3058 12.9767 52.2525 12.93C52.2058 12.8833 52.1825 12.8233 52.1825 12.75V9L51.0625 11.09C50.9758 11.2433 50.8592 11.32 50.7125 11.32H50.1925C50.1058 11.32 50.0358 11.3 49.9825 11.26C49.9292 11.22 49.8825 11.1633 49.8425 11.09L48.7125 9V12.75C48.7125 12.8167 48.6892 12.8767 48.6425 12.93C48.5958 12.9767 48.5358 13 48.4625 13H47.2625ZM56.5438 13C56.4771 13 56.4171 12.9767 56.3638 12.93C56.3171 12.8767 56.2938 12.8167 56.2938 12.75V6.25C56.2938 6.17667 56.3171 6.11667 56.3638 6.07C56.4171 6.02333 56.4771 6 56.5438 6H61.2138C61.2871 6 61.3471 6.02333 61.3938 6.07C61.4404 6.11667 61.4638 6.17667 61.4638 6.25V7.19C61.4638 7.25667 61.4404 7.31667 61.3938 7.37C61.3471 7.41667 61.2871 7.44 61.2138 7.44H58.0238V8.79H60.9938C61.0671 8.79 61.1271 8.81667 61.1738 8.87C61.2204 8.91667 61.2437 8.97667 61.2437 9.05V9.92C61.2437 9.98667 61.2204 10.0467 61.1738 10.1C61.1271 10.1467 61.0671 10.17 60.9938 10.17H58.0238V11.56H61.2938C61.3671 11.56 61.4271 11.5833 61.4737 11.63C61.5204 11.6767 61.5438 11.7367 61.5438 11.81V12.75C61.5438 12.8167 61.5204 12.8767 61.4737 12.93C61.4271 12.9767 61.3671 13 61.2938 13H56.5438Z" fill="#3366FF"/>
<path d="M13.81 27.1C13.1767 27.1 12.6333 27.0067 12.18 26.82C11.7267 26.6333 11.3833 26.39 11.15 26.09C10.9233 25.7833 10.8033 25.45 10.79 25.09C10.79 25.0367 10.81 24.99 10.85 24.95C10.8967 24.9033 10.95 24.88 11.01 24.88H12.27C12.35 24.88 12.4133 24.8967 12.46 24.93C12.5133 24.9567 12.5667 25 12.62 25.06C12.7067 25.2333 12.8467 25.3767 13.04 25.49C13.2333 25.6033 13.49 25.66 13.81 25.66C14.19 25.66 14.48 25.6 14.68 25.48C14.88 25.36 14.98 25.1967 14.98 24.99C14.98 24.8433 14.9267 24.7233 14.82 24.63C14.72 24.5367 14.56 24.4533 14.34 24.38C14.12 24.3067 13.7933 24.2233 13.36 24.13C12.56 23.9633 11.96 23.72 11.56 23.4C11.1667 23.0733 10.97 22.61 10.97 22.01C10.97 21.6033 11.0833 21.24 11.31 20.92C11.5367 20.6 11.86 20.35 12.28 20.17C12.7 19.99 13.19 19.9 13.75 19.9C14.33 19.9 14.8333 20 15.26 20.2C15.6867 20.4 16.01 20.6533 16.23 20.96C16.4567 21.26 16.5767 21.5567 16.59 21.85C16.59 21.91 16.57 21.96 16.53 22C16.49 22.04 16.44 22.06 16.38 22.06H15.06C14.98 22.06 14.9133 22.0467 14.86 22.02C14.8133 21.9933 14.77 21.95 14.73 21.89C14.69 21.7367 14.58 21.6067 14.4 21.5C14.2267 21.3933 14.01 21.34 13.75 21.34C13.45 21.34 13.22 21.3933 13.06 21.5C12.9 21.6067 12.82 21.7633 12.82 21.97C12.82 22.11 12.8633 22.2267 12.95 22.32C13.0433 22.4133 13.19 22.5 13.39 22.58C13.5967 22.6533 13.89 22.73 14.27 22.81C14.89 22.9233 15.3833 23.0667 15.75 23.24C16.1233 23.4067 16.3967 23.6267 16.57 23.9C16.7433 24.1667 16.83 24.5033 16.83 24.91C16.83 25.3567 16.7 25.7467 16.44 26.08C16.1867 26.4067 15.83 26.66 15.37 26.84C14.9167 27.0133 14.3967 27.1 13.81 27.1ZM21.6909 27.1C20.7509 27.1 20.0109 26.87 19.4709 26.41C18.9309 25.95 18.6442 25.2733 18.6109 24.38C18.6042 24.1867 18.6009 23.9 18.6009 23.52C18.6009 23.1333 18.6042 22.8433 18.6109 22.65C18.6442 21.77 18.9342 21.0933 19.4809 20.62C20.0342 20.14 20.7709 19.9 21.6909 19.9C22.6109 19.9 23.3475 20.14 23.9009 20.62C24.4542 21.0933 24.7442 21.77 24.7709 22.65C24.7842 23.0367 24.7909 23.3267 24.7909 23.52C24.7909 23.7067 24.7842 23.9933 24.7709 24.38C24.7375 25.2733 24.4509 25.95 23.9109 26.41C23.3709 26.87 22.6309 27.1 21.6909 27.1ZM21.6909 25.66C22.0575 25.66 22.3475 25.55 22.5609 25.33C22.7809 25.11 22.8975 24.7733 22.9109 24.32C22.9242 23.9333 22.9309 23.66 22.9309 23.5C22.9309 23.3267 22.9242 23.0533 22.9109 22.68C22.8975 22.2267 22.7809 21.89 22.5609 21.67C22.3409 21.45 22.0509 21.34 21.6909 21.34C21.3309 21.34 21.0409 21.45 20.8209 21.67C20.6075 21.89 20.4909 22.2267 20.4709 22.68C20.4642 22.8667 20.4609 23.14 20.4609 23.5C20.4609 23.8533 20.4642 24.1267 20.4709 24.32C20.4909 24.7733 20.6075 25.11 20.8209 25.33C21.0342 25.55 21.3242 25.66 21.6909 25.66ZM27.2 27C27.1333 27 27.0733 26.9767 27.02 26.93C26.9733 26.8767 26.95 26.8167 26.95 26.75V20.25C26.95 20.1767 26.9733 20.1167 27.02 20.07C27.0733 20.0233 27.1333 20 27.2 20H28.52C28.5933 20 28.6533 20.0233 28.7 20.07C28.7467 20.1167 28.77 20.1767 28.77 20.25V25.49H31.8C31.8733 25.49 31.9333 25.5167 31.98 25.57C32.0267 25.6167 32.05 25.6767 32.05 25.75V26.75C32.05 26.8167 32.0267 26.8767 31.98 26.93C31.9333 26.9767 31.8733 27 31.8 27H27.2ZM33.5168 27C33.4635 27 33.4135 26.98 33.3668 26.94C33.3268 26.8933 33.3068 26.8433 33.3068 26.79C33.3068 26.75 33.3101 26.72 33.3168 26.7L35.6668 20.28C35.6868 20.2 35.7301 20.1333 35.7968 20.08C35.8635 20.0267 35.9501 20 36.0568 20H37.5368C37.6435 20 37.7301 20.0267 37.7968 20.08C37.8635 20.1333 37.9068 20.2 37.9268 20.28L40.2668 26.7L40.2868 26.79C40.2868 26.8433 40.2635 26.8933 40.2168 26.94C40.1768 26.98 40.1268 27 40.0668 27H38.8368C38.6768 27 38.5701 26.93 38.5168 26.79L38.1268 25.77H35.4568L35.0768 26.79C35.0235 26.93 34.9135 27 34.7468 27H33.5168ZM37.7268 24.33L36.7968 21.69L35.8668 24.33H37.7268ZM42.325 27C42.2583 27 42.1983 26.9767 42.145 26.93C42.0983 26.8767 42.075 26.8167 42.075 26.75V20.25C42.075 20.1767 42.0983 20.1167 42.145 20.07C42.1983 20.0233 42.2583 20 42.325 20H43.385C43.5517 20 43.665 20.0633 43.725 20.19L46.165 24.03V20.25C46.165 20.1767 46.1883 20.1167 46.235 20.07C46.2883 20.0233 46.3483 20 46.415 20H47.615C47.6883 20 47.7483 20.0233 47.795 20.07C47.8417 20.1167 47.865 20.1767 47.865 20.25V26.74C47.865 26.8133 47.8417 26.8767 47.795 26.93C47.7483 26.9767 47.6883 27 47.615 27H46.545C46.3983 27 46.2883 26.9367 46.215 26.81L43.775 23.11V26.75C43.775 26.8167 43.7517 26.8767 43.705 26.93C43.6583 26.9767 43.5983 27 43.525 27H42.325ZM49.8625 27C49.8092 27 49.7592 26.98 49.7125 26.94C49.6725 26.8933 49.6525 26.8433 49.6525 26.79C49.6525 26.75 49.6558 26.72 49.6625 26.7L52.0125 20.28C52.0325 20.2 52.0758 20.1333 52.1425 20.08C52.2092 20.0267 52.2958 20 52.4025 20H53.8825C53.9892 20 54.0758 20.0267 54.1425 20.08C54.2092 20.1333 54.2525 20.2 54.2725 20.28L56.6125 26.7L56.6325 26.79C56.6325 26.8433 56.6092 26.8933 56.5625 26.94C56.5225 26.98 56.4725 27 56.4125 27H55.1825C55.0225 27 54.9158 26.93 54.8625 26.79L54.4725 25.77H51.8025L51.4225 26.79C51.3692 26.93 51.2592 27 51.0925 27H49.8625ZM54.0725 24.33L53.1425 21.69L52.2125 24.33H54.0725Z" fill="#3366FF"/>
<rect x="0.75" y="0.75" width="66.5" height="32.5" rx="3.25" stroke="#3366FF" stroke-width="1.5"/>
</svg>
