<svg width="129" height="14" viewBox="0 0 129 14" fill="none" xmlns="http://www.w3.org/2000/svg">
<path d="M0.42 11C0.356 11 0.296 10.976 0.24 10.928C0.192 10.88 0.168 10.82 0.168 10.748L0.192 10.64L3.084 2.9C3.14 2.7 3.28 2.6 3.504 2.6H4.812C5.02 2.6 5.16 2.7 5.232 2.9L8.124 10.64C8.132 10.664 8.136 10.7 8.136 10.748C8.136 10.82 8.112 10.88 8.064 10.928C8.016 10.976 7.96 11 7.896 11H6.852C6.748 11 6.668 10.976 6.612 10.928C6.556 10.88 6.52 10.828 6.504 10.772L5.94 9.308H2.376L1.812 10.772C1.748 10.924 1.632 11 1.464 11H0.42ZM5.52 7.928L4.152 4.22L2.796 7.928H5.52ZM10.8965 11C10.7765 11 10.6805 10.968 10.6085 10.904C10.5365 10.84 10.4925 10.752 10.4765 10.64L9.04847 2.948L9.03647 2.852C9.03647 2.78 9.06047 2.72 9.10847 2.672C9.16447 2.624 9.22447 2.6 9.28847 2.6H10.3445C10.5445 2.6 10.6565 2.68 10.6805 2.84L11.6765 8.276L12.7565 4.76C12.8365 4.56 12.9685 4.46 13.1525 4.46H13.8005C14.0005 4.46 14.1285 4.56 14.1845 4.76L15.2765 8.264L16.2725 2.84C16.2885 2.752 16.3205 2.692 16.3685 2.66C16.4245 2.62 16.5045 2.6 16.6085 2.6H17.6645C17.7285 2.6 17.7845 2.624 17.8325 2.672C17.8805 2.72 17.9045 2.78 17.9045 2.852C17.9045 2.892 17.9005 2.924 17.8925 2.948L16.4645 10.64C16.4245 10.88 16.2845 11 16.0445 11H15.2405C15.1285 11 15.0365 10.972 14.9645 10.916C14.8925 10.86 14.8445 10.788 14.8205 10.7L13.4765 6.692L12.1325 10.7C12.0525 10.9 11.9085 11 11.7005 11H10.8965ZM20.2013 11C20.1213 11 20.0533 10.972 19.9973 10.916C19.9413 10.86 19.9133 10.792 19.9133 10.712V2.9C19.9133 2.812 19.9373 2.74 19.9853 2.684C20.0413 2.628 20.1133 2.6 20.2013 2.6H25.4813C25.5693 2.6 25.6413 2.628 25.6973 2.684C25.7533 2.74 25.7813 2.812 25.7813 2.9V3.692C25.7813 3.78 25.7533 3.852 25.6973 3.908C25.6413 3.956 25.5693 3.98 25.4813 3.98H21.5333V6.104H25.2173C25.3053 6.104 25.3773 6.132 25.4333 6.188C25.4893 6.236 25.5173 6.304 25.5173 6.392V7.136C25.5173 7.224 25.4893 7.296 25.4333 7.352C25.3773 7.4 25.3053 7.424 25.2173 7.424H21.5333V9.62H25.5773C25.6653 9.62 25.7373 9.648 25.7933 9.704C25.8493 9.76 25.8773 9.832 25.8773 9.92V10.712C25.8773 10.8 25.8493 10.872 25.7933 10.928C25.7373 10.976 25.6653 11 25.5773 11H20.2013ZM30.8942 11.12C30.1822 11.12 29.5702 11.012 29.0582 10.796C28.5462 10.58 28.1582 10.296 27.8942 9.944C27.6302 9.592 27.4902 9.212 27.4742 8.804C27.4742 8.732 27.4982 8.672 27.5462 8.624C27.5942 8.576 27.6542 8.552 27.7262 8.552H28.7942C28.8902 8.552 28.9622 8.572 29.0102 8.612C29.0662 8.644 29.1182 8.7 29.1662 8.78C29.2462 9.052 29.4302 9.28 29.7182 9.464C30.0062 9.648 30.3982 9.74 30.8942 9.74C31.4622 9.74 31.8902 9.648 32.1782 9.464C32.4662 9.272 32.6102 9.008 32.6102 8.672C32.6102 8.448 32.5342 8.264 32.3822 8.12C32.2382 7.976 32.0182 7.852 31.7222 7.748C31.4342 7.644 31.0022 7.516 30.4262 7.364C29.4822 7.14 28.7902 6.844 28.3502 6.476C27.9182 6.1 27.7022 5.568 27.7022 4.88C27.7022 4.416 27.8262 4.004 28.0742 3.644C28.3302 3.284 28.6942 3 29.1662 2.792C29.6462 2.584 30.2022 2.48 30.8342 2.48C31.4902 2.48 32.0582 2.596 32.5382 2.828C33.0182 3.06 33.3822 3.352 33.6302 3.704C33.8862 4.048 34.0222 4.392 34.0382 4.736C34.0382 4.808 34.0142 4.868 33.9662 4.916C33.9182 4.964 33.8582 4.988 33.7862 4.988H32.6702C32.5022 4.988 32.3862 4.912 32.3222 4.76C32.2742 4.504 32.1142 4.292 31.8422 4.124C31.5702 3.948 31.2342 3.86 30.8342 3.86C30.3862 3.86 30.0342 3.944 29.7782 4.112C29.5222 4.28 29.3942 4.524 29.3942 4.844C29.3942 5.068 29.4582 5.252 29.5862 5.396C29.7142 5.54 29.9142 5.668 30.1862 5.78C30.4662 5.892 30.8662 6.016 31.3862 6.152C32.0902 6.312 32.6502 6.492 33.0662 6.692C33.4902 6.892 33.8022 7.144 34.0022 7.448C34.2022 7.752 34.3022 8.14 34.3022 8.612C34.3022 9.124 34.1582 9.572 33.8702 9.956C33.5902 10.332 33.1902 10.62 32.6702 10.82C32.1582 11.02 31.5662 11.12 30.8942 11.12ZM39.5054 11.12C38.4174 11.12 37.5694 10.844 36.9614 10.292C36.3534 9.74 36.0334 8.92 36.0014 7.832C35.9934 7.6 35.9894 7.26 35.9894 6.812C35.9894 6.356 35.9934 6.012 36.0014 5.78C36.0334 4.716 36.3614 3.9 36.9854 3.332C37.6094 2.764 38.4494 2.48 39.5054 2.48C40.5614 2.48 41.4014 2.764 42.0254 3.332C42.6574 3.9 42.9894 4.716 43.0214 5.78C43.0374 6.244 43.0454 6.588 43.0454 6.812C43.0454 7.028 43.0374 7.368 43.0214 7.832C42.9814 8.92 42.6574 9.74 42.0494 10.292C41.4414 10.844 40.5934 11.12 39.5054 11.12ZM39.5054 9.74C40.0414 9.74 40.4694 9.58 40.7894 9.26C41.1094 8.932 41.2814 8.436 41.3054 7.772C41.3214 7.292 41.3294 6.968 41.3294 6.8C41.3294 6.616 41.3214 6.292 41.3054 5.828C41.2814 5.164 41.1094 4.672 40.7894 4.352C40.4694 4.024 40.0414 3.86 39.5054 3.86C38.9774 3.86 38.5534 4.024 38.2334 4.352C37.9134 4.672 37.7414 5.164 37.7174 5.828C37.7094 6.06 37.7054 6.384 37.7054 6.8C37.7054 7.208 37.7094 7.532 37.7174 7.772C37.7414 8.436 37.9094 8.932 38.2214 9.26C38.5414 9.58 38.9694 9.74 39.5054 9.74ZM45.5212 11C45.4332 11 45.3612 10.976 45.3052 10.928C45.2492 10.872 45.2212 10.8 45.2212 10.712V2.9C45.2212 2.812 45.2492 2.74 45.3052 2.684C45.3612 2.628 45.4332 2.6 45.5212 2.6H46.4692C46.6372 2.6 46.7572 2.676 46.8292 2.828L49.1452 7.148L51.4852 2.828C51.5652 2.676 51.6852 2.6 51.8452 2.6H52.7812C52.8692 2.6 52.9412 2.628 52.9972 2.684C53.0532 2.74 53.0812 2.812 53.0812 2.9V10.712C53.0812 10.8 53.0532 10.872 52.9972 10.928C52.9412 10.976 52.8692 11 52.7812 11H51.7732C51.6932 11 51.6252 10.972 51.5692 10.916C51.5132 10.86 51.4852 10.792 51.4852 10.712V5.516L49.8052 8.72C49.7012 8.896 49.5652 8.984 49.3972 8.984H48.9052C48.7372 8.984 48.6012 8.896 48.4972 8.72L46.8172 5.516V10.712C46.8172 10.792 46.7892 10.86 46.7332 10.916C46.6852 10.972 46.6172 11 46.5292 11H45.5212ZM55.8357 11C55.7557 11 55.6877 10.972 55.6317 10.916C55.5757 10.86 55.5477 10.792 55.5477 10.712V2.9C55.5477 2.812 55.5717 2.74 55.6197 2.684C55.6757 2.628 55.7477 2.6 55.8357 2.6H61.1157C61.2037 2.6 61.2757 2.628 61.3317 2.684C61.3877 2.74 61.4157 2.812 61.4157 2.9V3.692C61.4157 3.78 61.3877 3.852 61.3317 3.908C61.2757 3.956 61.2037 3.98 61.1157 3.98H57.1677V6.104H60.8517C60.9397 6.104 61.0117 6.132 61.0677 6.188C61.1237 6.236 61.1517 6.304 61.1517 6.392V7.136C61.1517 7.224 61.1237 7.296 61.0677 7.352C61.0117 7.4 60.9397 7.424 60.8517 7.424H57.1677V9.62H61.2117C61.2997 9.62 61.3717 9.648 61.4277 9.704C61.4837 9.76 61.5117 9.832 61.5117 9.92V10.712C61.5117 10.8 61.4837 10.872 61.4277 10.928C61.3717 10.976 61.2997 11 61.2117 11H55.8357Z" fill="#232323"/>
<path d="M74.2561 4.09941V2.16525H66.9201C66.4108 2.16525 65.9225 2.36755 65.5624 2.72763C65.2023 3.08771 65 3.57609 65 4.08533V6.04765C65 6.55688 65.2023 7.04526 65.5624 7.40535C65.9225 7.76543 66.4108 7.96773 66.9201 7.96773H72.7354V9.90061H65.1382V11.8348H72.7494C73.2587 11.8348 73.747 11.6325 74.1071 11.2724C74.4672 10.9123 74.6695 10.4239 74.6695 9.91469V7.95365C74.6695 7.44441 74.4672 6.95603 74.1071 6.59595C73.747 6.23586 73.2587 6.03357 72.7494 6.03357H66.9342V4.09941H74.2561Z" fill="#9945FF"/>
<path d="M76.2542 4.08533V9.91469C76.2542 10.4239 76.4565 10.9123 76.8166 11.2724C77.1767 11.6325 77.665 11.8348 78.1743 11.8348H84.0037C84.5129 11.8348 85.0012 11.6325 85.3613 11.2724C85.7214 10.9123 85.9237 10.4239 85.9237 9.91469V4.08533C85.9237 3.57609 85.7214 3.08771 85.3613 2.72763C85.0012 2.36755 84.5129 2.16525 84.0037 2.16525H78.1743C77.665 2.16525 77.1767 2.36755 76.8166 2.72763C76.4565 3.08771 76.2542 3.57609 76.2542 4.08533ZM83.9896 9.90061H78.1845V4.09941H83.9857L83.9896 9.90061Z" fill="#9945FF"/>
<path d="M96.8246 4.08533V11.8348H98.7588V8.65768H104.424V11.8348H106.357V4.08533C106.357 3.57609 106.155 3.08771 105.795 2.72763C105.435 2.36755 104.946 2.16525 104.437 2.16525H98.7447C98.2355 2.16525 97.7471 2.36755 97.387 2.72763C97.0269 3.08771 96.8246 3.57609 96.8246 4.08533ZM104.424 6.72352H98.7601V4.09941H104.426L104.424 6.72352Z" fill="#9945FF"/>
<path d="M119.471 4.08533V11.8348H121.402V8.65768H127.066V11.8348H129V4.08533C129 3.57609 128.798 3.08771 128.438 2.72763C128.077 2.36755 127.589 2.16525 127.08 2.16525H121.391C120.882 2.16525 120.394 2.36755 120.034 2.72763C119.674 3.08771 119.471 3.57609 119.471 4.08533ZM127.068 6.72352H121.402V4.09941H127.066L127.068 6.72352Z" fill="#9945FF"/>
<path d="M115.818 2.16525V9.90061H115.05L112.27 2.9704C112.175 2.73288 112.011 2.52922 111.799 2.38571C111.587 2.2422 111.338 2.16541 111.082 2.16525H109.36C109.021 2.16525 108.695 2.30011 108.455 2.54017C108.215 2.78023 108.08 3.10581 108.08 3.44531V11.8348H110.009V4.09941H110.784L113.556 11.0309C113.651 11.2684 113.816 11.4719 114.028 11.6152C114.239 11.7585 114.489 11.835 114.745 11.8348H116.467C116.807 11.8348 117.132 11.6999 117.372 11.4598C117.612 11.2198 117.747 10.8942 117.747 10.5547V2.16525H115.818Z" fill="#9945FF"/>
<path d="M89.577 9.90061V2.16525H87.6454V9.91469C87.6454 10.4239 87.8476 10.9123 88.2077 11.2724C88.5678 11.6325 89.0563 11.8348 89.5655 11.8348H95.3808V9.90061H89.577Z" fill="#9945FF"/>
</svg>
